# xmcd
#
# Track frame offsets:
#	150
#	18242
#	34240
#	52375
#	70935
#	92677
#	112627
#	131150
#	148867
#	167067
#	186072
#	205385
#	222357
#	242317
#	263515
#	281082
#	302380
#	323850
#
# Disc length: 4571 seconds
#
# Revision: 0
# Processed by: cddbd v1.5.1PL2 Copyright (c) Steve Scherf et al.
# Submitted via: audiograbber 1.83.01
#
DISCID=0511d912
DTITLE=Pointer Sisters - Fire - The Very Best Of [CD2]
DYEAR=1996
DGENRE=Pop
TTITLE0=June Pointer: I'm Ready For Love
TTITLE1=Heart To Heart
TTITLE2=American Music
TTITLE3=See How The Love Goes
TTITLE4=Automatic
TTITLE5=Jump (For My Love)
TTITLE6=I Need You
TTITLE7=I'm So Excited
TTITLE8=Telegraph Your Love
TTITLE9=Baby, Come And Get It
TTITLE10=Neutron Dance
TTITLE11=Dare Me
TTITLE12=Freedom
TTITLE13=Back In My Arms
TTITLE14=Goldmine
TTITLE15=All I Know Is The Way I Feel
TTITLE16=Anita Pointer: Overnight Success
TTITLE17=He Turned Me Out
EXTD=YEAR: 1996
EXTT0=
EXTT1=
EXTT2=
EXTT3=
EXTT4=
EXTT5=
EXTT6=
EXTT7=
EXTT8=
EXTT9=
EXTT10=
EXTT11=
EXTT12=
EXTT13=
EXTT14=
EXTT15=
EXTT16=
EXTT17=
PLAYORDER=
